<svg width="234" height="287" viewBox="0 0 234 287" fill="none" xmlns="http://www.w3.org/2000/svg">
<path d="M6 6L55.2809 146.5M101 281L55.2809 146.5M55.2809 146.5L101 6M55.2809 146.5L6 281" stroke="white" stroke-width="10" stroke-linecap="round"/>
<path d="M229 152C229 189.251 224.59 222.007 216.44 245.263C212.361 256.902 207.452 265.852 201.956 271.814C196.532 277.696 190.723 280.5 184.5 280.5C178.205 280.5 171.824 277.629 165.593 271.608C159.334 265.56 153.466 256.539 148.428 244.927C138.359 221.716 132 189.053 132 152C132 114.947 138.36 79.454 148.501 53.3969C153.578 40.3514 159.505 29.9267 165.843 22.852C172.196 15.7602 178.512 12.5 184.5 12.5C189.269 12.5 194.57 15.4528 200.095 22.5792C205.567 29.6375 210.66 40.0711 215.005 53.1587C223.676 79.2807 229 114.855 229 152Z" stroke="white" stroke-width="10"/>
</svg>
